<svg viewBox="0 0 139.72 33.32" xmlns="http://www.w3.org/2000/svg"><g fill="#fff"><g transform="translate(-.14 -.03)"><path d="m33 31.14h-7.79l-2.37-5.72h-12.92l-2.16 5.72h-7.62l11.64-28.88h8.34zm-16.89-22-4.28 11.25h8.89z"/><path d="m61.1 2.26h6.27v28.88h-7.2v-18l-7.79 9.06h-1.1l-7.79-9.1v18h-7.2v-28.84h6.27l9.27 10.74z"/><path d="m85.61 2.26c10.54 0 16 6.56 16 14.48 0 8.3-5.25 14.4-16.77 14.4h-11.98v-28.88zm-5.55 23.59h4.7c7.24 0 9.4-4.91 9.4-9.15 0-5-2.67-9.15-9.48-9.15h-4.62z"/></g><path d="m130.64 9.08h-14.89l-9.07-9.08h33.04v33.05l-9.08-9.08z"/><path d="m115.74 23.98v-13.08l-9.34 9.34v13.09h13.08l9.34-9.35z"/></g></svg>